<svg xmlns="http://www.w3.org/2000/svg" width="200" height="200" viewBox="0 0 200 200" fill="none">
<path d="M 119.88,17.97 C 115.28,17.97 110.92,18.36 108.04,18.81 V 19.01 C 118.71,23.52 127.83,30.66 135.22,39.51 C 157.91,47.28 174.72,70.89 174.72,99.71 C 174.72,114.71 168.97,129.78 161.46,141.28 C 165.21,148.18 170.69,152.73 175.18,154.15 C 186.28,138.66 194.11,120.69 194.11,99.91 C 194.11,58.18 162.44,17.97 119.88,17.97 Z" fill="url(#paint0_linear_1002_1408)"/>
<path d="M 193.88,162.99 H 191.12 C 169.79,162.99 151.09,144.07 151.09,122.66 C 151.09,117.11 152.81,110.01 152.81,100.04 C 152.81,59.02 123.12,17.53 80.19,17.53 H 79.91 C 39.88,17.53 6.34,53.68 6.34,100.11 C 6.34,139.81 36.95,180.48 79.29,180.48 C 84.41,180.48 87.93,179.97 91.71,179.52 V 179.26 C 81.25,174.88 72.71,167.91 64.95,159.2 C 43.22,152.87 24.86,129.26 24.86,99.71 C 24.86,66.61 48.91,36.79 80.32,36.79 C 109.94,36.79 134.58,63.77 134.58,99.71 C 134.58,105.78 132.86,112.75 132.86,122.93 C 132.86,147.71 152.94,181.33 193.88,181.33 V 162.99 Z" fill="url(#paint1_linear_1002_1408)"/>
<path d="M 138.33,158.52 C 131.91,161.61 126.03,162.53 119.12,162.53 C 90.18,162.53 66.07,135.95 66.07,100.14 C 66.07,77.91 77.23,56.23 94.58,44.21 C 89.66,42.23 86.14,41.45 80.26,41.45 C 75.77,41.45 72.25,42.03 67.76,43.81 C 55.07,57.71 47.24,75.35 47.24,99.85 C 47.24,139.93 75.71,180.41 118.84,180.41 C 130.24,180.41 141.11,177.83 151.36,172.76 V 172.24 C 145.68,167.72 141.52,163.14 138.33,158.52 Z" fill="url(#paint2_linear_1002_1408)"/>
<path d="M 128.44,129.06 H 128.1 C 122.15,140.75 114.83,149.26 105.29,155.26 V 155.46 C 110.08,157.17 114.34,157.62 119.75,157.62 C 125.23,157.62 130.72,156.34 134.71,152.93 C 130.65,144.81 128.71,137.81 128.44,129.06 Z" fill="url(#paint3_linear_1002_1408)"/>
<defs>
<linearGradient id="paint0_linear_1002_1408" x1="107.918" y1="17.9717" x2="201.006" y2="151.881" gradientUnits="userSpaceOnUse">
<stop stop-color="#007A7A"/>
<stop offset="1" stop-color="#0B797A"/>
</linearGradient>
<linearGradient id="paint1_linear_1002_1408" x1="6.33594" y1="17.5264" x2="105.171" y2="200.789" gradientUnits="userSpaceOnUse">
<stop stop-color="#007A7A"/>
<stop offset="1" stop-color="#0B797A"/>
</linearGradient>
<linearGradient id="paint2_linear_1002_1408" x1="47.2363" y1="41.4463" x2="149.78" y2="181.922" gradientUnits="userSpaceOnUse">
<stop stop-color="#007A7A"/>
<stop offset="1" stop-color="#0B797A"/>
</linearGradient>
<linearGradient id="paint3_linear_1002_1408" x1="105.289" y1="129.062" x2="127.769" y2="165.876" gradientUnits="userSpaceOnUse">
<stop stop-color="#007A7A"/>
<stop offset="1" stop-color="#0B797A"/>
</linearGradient>
</defs>
</svg>